<svg width="48" height="48" viewBox="0 0 48 48" fill="none" xmlns="http://www.w3.org/2000/svg">
<rect width="48" height="48" rx="8" fill="white"/>
<path fill-rule="evenodd" clip-rule="evenodd" d="M32.0494 18.9529C32.328 19.2415 32.526 19.5988 32.6232 19.9889C32.8827 21.4343 33.0087 22.9007 32.9995 24.3694C33.0047 25.8161 32.8787 27.2604 32.6232 28.6841C32.526 29.0742 32.328 29.4315 32.0494 29.7202C31.7707 30.0088 31.4211 30.2183 31.036 30.3278C29.6288 30.7059 24 30.7059 24 30.7059C24 30.7059 18.3712 30.7059 16.964 30.3278C16.5867 30.2241 16.2424 30.0244 15.9644 29.748C15.6863 29.4716 15.484 29.1278 15.3768 28.7499C15.1173 27.3045 14.9913 25.8381 15.0005 24.3694C14.9933 22.9117 15.1193 21.4564 15.3768 20.0218C15.474 19.6317 15.6719 19.2743 15.9506 18.9857C16.2293 18.6971 16.5789 18.4875 16.964 18.3781C18.3712 18 24 18 24 18C24 18 29.6288 18 31.036 18.3452C31.4211 18.4546 31.7707 18.6643 32.0494 18.9529ZM26.8636 24.3696L22.1593 27.057V21.6821L26.8636 24.3696Z" fill="#1F3262"/>
</svg>
